<?xml version="1.0" encoding="UTF-8" standalone="no"?>
<svg width="29px" height="29px" viewBox="0 0 29 29" version="1.1" xmlns="http://www.w3.org/2000/svg" xmlns:xlink="http://www.w3.org/1999/xlink">
    <!-- Generator: Sketch 39.1 (31720) - http://www.bohemiancoding.com/sketch -->
    <title>Glances Icon</title>
    <desc>Created with Sketch.</desc>
    <defs></defs>
    <g id="Page-1" stroke="none" stroke-width="1" fill="none" fill-rule="evenodd">
        <g id="設定內容" transform="translate(-15.000000, -372.000000)">
            <g id="Cells" transform="translate(0.000000, 99.000000)">
                <g id="Glances-Copy-3" transform="translate(0.000000, 266.000000)">
                    <g id="Glances-Icon" transform="translate(15.000000, 7.000000)">
                        <path d="M14.5,29 C22.5081289,29 29,22.5081289 29,14.5 C29,6.49187113 22.5081289,0 14.5,0 C6.49187113,0 0,6.49187113 0,14.5 C0,22.5081289 6.49187113,29 14.5,29 Z" id="Oval-516" fill="#1E8CFF"></path>
                        <path d="M11.2822719,18.5517241 L18.7177281,18.5517241 C21.0722892,18.5517241 23,16.6406475 23,14.2758621 C23,11.9110766 21.0860585,10 18.7177281,10 L11.2822719,10 C8.92771084,10 7,11.9110766 7,14.2758621 C7,16.6406475 8.92771084,18.5517241 11.2822719,18.5517241 L11.2822719,18.5517241 Z M11.2822719,11.1273977 L18.7177281,11.1273977 C20.4526678,11.1273977 21.8709122,12.5435192 21.8709122,14.2758621 C21.8709122,16.0082049 20.4526678,17.4243264 18.7177281,17.4243264 L11.2822719,17.4243264 C9.54733219,17.4243264 8.12908778,16.0082049 8.12908778,14.2758621 C8.12908778,12.5435192 9.54733219,11.1273977 11.2822719,11.1273977 L11.2822719,11.1273977 Z M11.2822719,16.6543963 C12.5903614,16.6543963 13.6643718,15.5819936 13.6643718,14.2758621 C13.6643718,12.9697306 12.5903614,11.8973279 11.2822719,11.8973279 C9.97418244,11.8973279 8.90017212,12.9697306 8.90017212,14.2758621 C8.90017212,15.5819936 9.97418244,16.6543963 11.2822719,16.6543963 Z M11.2822719,13.0247256 C11.9707401,13.0247256 12.535284,13.5884244 12.535284,14.2758621 C12.535284,14.9632997 11.9707401,15.5269986 11.2822719,15.5269986 C10.5938038,15.5269986 10.0292599,14.9632997 10.0292599,14.2758621 C10.0292599,13.5884244 10.5938038,13.0247256 11.2822719,13.0247256 Z" id="switch" fill="#FFFFFF"></path>
                    </g>
                </g>
            </g>
        </g>
    </g>
</svg>