<?xml version="1.0" encoding="UTF-8" standalone="no"?>
<svg width="29px" height="29px" viewBox="0 0 29 29" version="1.1" xmlns="http://www.w3.org/2000/svg" xmlns:xlink="http://www.w3.org/1999/xlink">
    <!-- Generator: Sketch 39.1 (31720) - http://www.bohemiancoding.com/sketch -->
    <title>Glances Icon</title>
    <desc>Created with Sketch.</desc>
    <defs></defs>
    <g id="Page-1" stroke="none" stroke-width="1" fill="none" fill-rule="evenodd">
        <g id="設定內容" transform="translate(-15.000000, -416.000000)">
            <g id="Cells" transform="translate(0.000000, 99.000000)">
                <g id="Glances-Copy-4" transform="translate(0.000000, 310.000000)">
                    <g id="Glances-Icon" transform="translate(15.000000, 7.000000)">
                        <circle id="Oval-516" fill="#1E8CFF" cx="14.5" cy="14.5" r="14.5"></circle>
                        <path d="M22.5869191,8.52711791 L17.6299484,7.02469491 L17.6024096,7.02469491 C17.5748709,7.02469491 17.5611015,7.01091122 17.5335628,7.01091122 L17.464716,7.01091122 L17.3958692,7.01091122 C17.3683305,7.01091122 17.3545611,7.01091122 17.3270224,7.02469491 L17.2994836,7.02469491 L12.5215146,8.48576682 L7.72977625,7.02469491 C7.56454389,6.96956012 7.37177281,7.01091122 7.23407917,7.1073971 C7.09638554,7.21766667 7,7.38307104 7,7.56225911 L7,20.9324454 C7,21.180552 7.16523236,21.4010911 7.39931153,21.4700096 L12.3562823,22.9724326 C12.4113597,22.9862163 12.4664372,23 12.5215146,23 C12.5765921,23 12.6316695,22.9862163 12.686747,22.9724326 L17.4784854,21.5251444 L22.2702238,22.9724326 C22.3253012,22.9862163 22.3803787,23 22.4354561,23 C22.5593804,23 22.6695353,22.9586489 22.7659208,22.8897304 C22.9036145,22.7794608 23,22.6140565 23,22.4348684 L23,9.0646821 C23,8.81657555 22.8347676,8.60982009 22.5869191,8.52711791 L22.5869191,8.52711791 Z M11.9569707,21.6905488 L8.12908778,20.5327182 L8.12908778,8.32036245 L11.9569707,9.47819302 L11.9569707,21.6905488 L11.9569707,21.6905488 Z M16.9139415,20.5189345 L13.0860585,21.6905488 L13.0860585,9.49197672 L16.9139415,8.32036245 L16.9139415,20.5189345 L16.9139415,20.5189345 Z M21.8709122,21.6905488 L18.0430293,20.5327182 L18.0430293,8.32036245 L21.8709122,9.47819302 L21.8709122,21.6905488 L21.8709122,21.6905488 Z" id="map" fill="#FFFFFF"></path>
                    </g>
                </g>
            </g>
        </g>
    </g>
</svg>