<?xml version="1.0" encoding="UTF-8" standalone="no"?>
<svg width="29px" height="29px" viewBox="0 0 29 29" version="1.1" xmlns="http://www.w3.org/2000/svg" xmlns:xlink="http://www.w3.org/1999/xlink">
    <!-- Generator: Sketch 39.1 (31720) - http://www.bohemiancoding.com/sketch -->
    <title>Glances Icon</title>
    <desc>Created with Sketch.</desc>
    <defs></defs>
    <g id="Page-1" stroke="none" stroke-width="1" fill="none" fill-rule="evenodd">
        <g id="設定內容" transform="translate(-15.000000, -284.000000)">
            <g id="Cells" transform="translate(0.000000, 99.000000)">
                <g id="Glances-Copy" transform="translate(0.000000, 178.000000)">
                    <g id="Glances-Icon" transform="translate(15.000000, 7.000000)">
                        <circle id="Oval-516" fill="#1E8CFF" cx="14.5" cy="14.5" r="14.5"></circle>
                        <path d="M8.54480757,22.4201898 C8.54480757,22.7377049 8.79308021,22.986195 9.11031748,22.986195 C9.42755475,22.986195 9.67582739,22.7377049 9.67582739,22.4201898 L9.67582739,11.2105263 C10.5861604,10.9620362 11.2620137,10.133736 11.2620137,9.13977567 C11.2620137,7.9663503 10.3103019,7 9.1241104,7 C7.93791888,7 7,7.9663503 7,9.13977567 C7,10.119931 7.66206039,10.9482312 8.55860049,11.1967213 L8.55860049,22.4201898 L8.54480757,22.4201898 Z M8.10343398,9.13977567 C8.10343398,8.5875755 8.55860049,8.13201035 9.11031748,8.13201035 C9.66203447,8.13201035 10.117201,8.5875755 10.117201,9.13977567 C10.117201,9.69197584 9.66203447,10.147541 9.11031748,10.147541 C8.55860049,10.147541 8.10343398,9.69197584 8.10343398,9.13977567 Z M14.9861034,7 C14.6688661,7 14.4205935,7.24849008 14.4205935,7.56600518 L14.4205935,13.391717 C13.5240534,13.6402071 12.861993,14.4685073 12.861993,15.4486626 C12.861993,16.4288179 13.5240534,17.2571182 14.4205935,17.5056083 L14.4205935,22.4339948 C14.4205935,22.7515099 14.6688661,23 14.9861034,23 C15.3033407,23 15.5516133,22.7515099 15.5516133,22.4339948 L15.5516133,17.5056083 C16.4619463,17.2571182 17.1377997,16.4288179 17.1377997,15.4348576 C17.1377997,14.4408973 16.4619463,13.6125971 15.5516133,13.364107 L15.5516133,7.56600518 C15.5516133,7.24849008 15.3033407,7 14.9861034,7 L14.9861034,7 Z M16.0205728,15.4486626 C16.0205728,16.0008628 15.5654062,16.456428 15.0136892,16.456428 C14.4619723,16.456428 14.0068057,16.0008628 14.0068057,15.4486626 C14.0068057,14.8964625 14.4619723,14.4408973 15.0136892,14.4408973 C15.5654062,14.4408973 16.0205728,14.8826575 16.0205728,15.4486626 Z M21.4273992,18.7894737 L21.4273992,7.56600518 C21.4273992,7.24849008 21.1791266,7 20.8618893,7 C20.5446521,7 20.2963794,7.24849008 20.2963794,7.56600518 L20.2963794,18.7894737 C19.3860464,19.0379638 18.723986,19.866264 18.723986,20.8464193 C18.723986,22.0198447 19.6756978,22.986195 20.8618893,22.986195 C22.0480808,22.986195 22.9997926,22.0336497 22.9997926,20.8464193 C23.0135856,19.866264 22.3377323,19.0379638 21.4273992,18.7894737 Z M20.8756822,21.8541846 C20.3239653,21.8541846 19.8687987,21.3986195 19.8687987,20.8464193 C19.8687987,20.2942192 20.3239653,19.838654 20.8756822,19.838654 C21.4273992,19.838654 21.8825657,20.2942192 21.8825657,20.8464193 C21.8825657,21.3986195 21.4273992,21.8541846 20.8756822,21.8541846 Z" id="settings" fill="#FFFFFF"></path>
                    </g>
                </g>
            </g>
        </g>
    </g>
</svg>