<?xml version="1.0" encoding="UTF-8" standalone="no"?>
<svg width="29px" height="29px" viewBox="0 0 29 29" version="1.1" xmlns="http://www.w3.org/2000/svg" xmlns:xlink="http://www.w3.org/1999/xlink">
    <!-- Generator: Sketch 39.1 (31720) - http://www.bohemiancoding.com/sketch -->
    <title>App Layout Icon</title>
    <desc>Created with Sketch.</desc>
    <defs></defs>
    <g id="Page-1" stroke="none" stroke-width="1" fill="none" fill-rule="evenodd">
        <g id="設定內容" transform="translate(-15.000000, -151.000000)">
            <g id="Cells" transform="translate(0.000000, 99.000000)">
                <g id="App-Layout" transform="translate(0.000000, 45.000000)">
                    <g id="App-Layout-Icon" transform="translate(15.000000, 7.000000)">
                        <circle id="Oval-516" fill="#1E8CFF" cx="14.5" cy="14.5" r="14.5"></circle>
                        <path d="M7.56454389,19.1044275 L9.38209983,19.1044275 L9.38209983,20.9551654 C9.38209983,21.1745121 9.5060241,21.3664405 9.69879518,21.4624047 C9.78141136,21.5035322 9.86402754,21.5172414 9.94664372,21.5172414 C10.070568,21.5172414 10.1944923,21.4761139 10.2908778,21.407568 L13.3201377,19.1181367 L22.4354561,19.1181367 C22.7521515,19.1181367 23,18.8713716 23,18.5560607 L23,8.56207596 C23,8.24676506 22.7521515,8 22.4354561,8 L7.56454389,8 C7.24784854,8 7,8.24676506 7,8.56207596 L7,18.5423515 C7,18.8576624 7.2616179,19.1044275 7.56454389,19.1044275 Z M10.9380379,12.7570819 L19.0619621,12.7570819 C19.3786575,12.7570819 19.626506,12.5103168 19.626506,12.1950059 C19.626506,11.879695 19.3786575,11.63293 19.0619621,11.63293 L10.9380379,11.63293 C10.6213425,11.63293 10.373494,11.879695 10.373494,12.1950059 C10.373494,12.5103168 10.6213425,12.7570819 10.9380379,12.7570819 Z M10.9380379,15.4714975 L19.0619621,15.4714975 C19.3786575,15.4714975 19.626506,15.2247325 19.626506,14.9094216 C19.626506,14.5941107 19.3786575,14.3473456 19.0619621,14.3473456 L10.9380379,14.3473456 C10.6213425,14.3473456 10.373494,14.5941107 10.373494,14.9094216 C10.373494,15.2247325 10.6213425,15.4714975 10.9380379,15.4714975 Z M8.12908778,9.12415192 L21.8571429,9.12415192 L21.8571429,17.9802756 L13.1273666,17.9802756 C13.0034423,17.9802756 12.8795181,18.0214031 12.7831325,18.0899489 L10.5111876,19.8173043 L10.5111876,18.5423515 C10.5111876,18.2270406 10.2633391,17.9802756 9.94664372,17.9802756 L8.12908778,17.9802756 L8.12908778,9.12415192 L8.12908778,9.12415192 Z" id="speech-bubble" fill="#FFFFFF"></path>
                    </g>
                </g>
            </g>
        </g>
    </g>
</svg>