<?xml version="1.0" encoding="UTF-8" standalone="no"?>
<svg width="29px" height="29px" viewBox="0 0 29 29" version="1.1" xmlns="http://www.w3.org/2000/svg" xmlns:xlink="http://www.w3.org/1999/xlink">
    <!-- Generator: Sketch 39.1 (31720) - http://www.bohemiancoding.com/sketch -->
    <title>Apple Watch Icon</title>
    <desc>Created with Sketch.</desc>
    <defs></defs>
    <g id="Page-1" stroke="none" stroke-width="1" fill="none" fill-rule="evenodd">
        <g id="設定內容" transform="translate(-15.000000, -107.000000)">
            <g id="Cells" transform="translate(0.000000, 99.000000)">
                <g id="Apple-Watch-" transform="translate(0.000000, 1.000000)">
                    <g id="Apple-Watch-Icon" transform="translate(15.000000, 7.000000)">
                        <g id="Group">
                            <path d="M14.5,29 C22.5081289,29 29,22.5081289 29,14.5 C29,6.49187113 22.5081289,0 14.5,0 C6.49187113,0 0,6.49187113 0,14.5 C0,22.5081289 6.49187113,29 14.5,29 Z" id="Oval-516" fill="#1E8CFF"></path>
                            <path d="M7.56454389,19.2918325 L11.2822719,19.2918325 C11.5989673,19.2918325 11.8468158,19.0437024 11.8468158,18.7266471 L11.8468158,18.533657 L18.4010327,22.9035049 C18.4974182,22.97243 18.6075731,23 18.7177281,23 C18.8141136,23 18.8967298,22.97243 18.979346,22.931075 C19.1583477,22.8345799 19.2822719,22.6415898 19.2822719,22.4348146 L19.2822719,7.56078969 C19.2822719,7.35401455 19.172117,7.16102442 18.979346,7.06452936 C18.8003442,6.9680343 18.5800344,6.9818193 18.4010327,7.09209938 L11.8468158,11.4757323 L11.8468158,11.2827422 C11.8468158,10.965687 11.5989673,10.7175568 11.2822719,10.7175568 L7.56454389,10.7175568 C7.24784854,10.7175568 7,10.965687 7,11.2827422 L7,18.7266471 C7,19.0299173 7.2616179,19.2918325 7.56454389,19.2918325 L7.56454389,19.2918325 Z M11.8468158,12.8266632 L18.1531842,8.6222354 L18.1531842,21.4009389 L11.8468158,17.1827261 L11.8468158,12.8266632 L11.8468158,12.8266632 Z M8.12908778,11.8479276 L10.7177281,11.8479276 L10.7177281,12.523393 L10.7177281,17.4859963 L10.7177281,18.1614618 L8.12908778,18.1614618 L8.12908778,11.8479276 L8.12908778,11.8479276 Z M22.4354561,10.7175568 C22.1187608,10.7175568 21.8709122,10.965687 21.8709122,11.2827422 L21.8709122,18.7266471 C21.8709122,19.0437024 22.1187608,19.2918325 22.4354561,19.2918325 C22.7521515,19.2918325 23,19.0437024 23,18.7266471 L23,11.2827422 C23,10.979472 22.7383821,10.7175568 22.4354561,10.7175568 Z" id="volume" fill="#FFFFFF"></path>
                        </g>
                    </g>
                </g>
            </g>
        </g>
    </g>
</svg>