<?xml version="1.0" encoding="UTF-8" standalone="no"?>
<svg width="29px" height="29px" viewBox="0 0 29 29" version="1.1" xmlns="http://www.w3.org/2000/svg" xmlns:xlink="http://www.w3.org/1999/xlink">
    <!-- Generator: Sketch 39.1 (31720) - http://www.bohemiancoding.com/sketch -->
    <title>Notifications Icon</title>
    <desc>Created with Sketch.</desc>
    <defs></defs>
    <g id="Page-1" stroke="none" stroke-width="1" fill="none" fill-rule="evenodd">
        <g id="設定內容" transform="translate(-15.000000, -195.000000)">
            <g id="Cells" transform="translate(0.000000, 99.000000)">
                <g id="Notifications" transform="translate(0.000000, 89.000000)">
                    <g id="Notifications-Icon" transform="translate(15.000000, 7.000000)">
                        <circle id="Oval-516" fill="#1E8CFF" cx="14.5" cy="14.5" r="14.5"></circle>
                        <path d="M7,14.7937877 C7,18.769629 10.21522,22 14.1724138,22 C18.1296076,22 21.3448276,18.769629 21.3448276,14.7937877 C21.3448276,12.8196721 20.5478927,11.0112166 19.2563086,9.71354616 L19.8196591,9.14754098 L20.080724,9.40983607 C20.1906461,9.5202761 20.3280486,9.57549612 20.4791914,9.57549612 C20.6303343,9.57549612 20.7677368,9.5202761 20.8776589,9.40983607 C21.097503,9.188956 21.097503,8.83002588 20.8776589,8.60914582 L19.5723345,7.29767041 C19.3524904,7.07679034 18.9952438,7.07679034 18.7753997,7.29767041 C18.5555556,7.51855047 18.5555556,7.87748059 18.7753997,8.09836066 L19.0364645,8.36065574 L18.418153,8.98188093 C17.3738935,8.20880069 16.1235302,7.72562554 14.7495046,7.6151855 L14.7495046,7.13201035 L15.9998679,7.13201035 C16.3158938,7.13201035 16.5632184,6.88352028 16.5632184,6.56600518 C16.5632184,6.24849008 16.3158938,6 15.9998679,6 L12.2899987,6 C11.9739728,6 11.7266482,6.24849008 11.7266482,6.56600518 C11.7266482,6.88352028 11.9739728,7.13201035 12.2899987,7.13201035 L13.6228035,7.13201035 L13.6228035,7.6151855 C9.91293434,7.9050906 7,11.0112166 7,14.7937877 L7,14.7937877 Z M14.1724138,8.71958585 C17.5112961,8.71958585 20.2318668,11.4529767 20.2318668,14.8075928 C20.2318668,18.1622088 17.5112961,20.8955997 14.1724138,20.8955997 C10.8335315,20.8955997 8.11296076,18.1622088 8.11296076,14.8075928 C8.11296076,11.4391717 10.8335315,8.71958585 14.1724138,8.71958585 L14.1724138,8.71958585 Z M14.1724138,15.2631579 L16.5769586,15.2631579 C16.8929845,15.2631579 17.1403092,15.0146678 17.1403092,14.6971527 C17.1403092,14.3796376 16.8929845,14.1311475 16.5769586,14.1311475 L14.7357643,14.1311475 L14.7357643,11.2182916 C14.7357643,10.9007765 14.4884397,10.6522865 14.1724138,10.6522865 C13.8563879,10.6522865 13.6090633,10.9007765 13.6090633,11.2182916 L13.6090633,14.7109577 C13.6090633,15.0146678 13.8563879,15.2631579 14.1724138,15.2631579 L14.1724138,15.2631579 Z" id="timer" fill="#FFFFFF"></path>
                    </g>
                </g>
            </g>
        </g>
    </g>
</svg>