<?xml version="1.0" encoding="UTF-8" standalone="no"?>
<svg width="29px" height="29px" viewBox="0 0 29 29" version="1.1" xmlns="http://www.w3.org/2000/svg" xmlns:xlink="http://www.w3.org/1999/xlink">
    <!-- Generator: Sketch 39.1 (31720) - http://www.bohemiancoding.com/sketch -->
    <title>Group 3</title>
    <desc>Created with Sketch.</desc>
    <defs></defs>
    <g id="Page-1" stroke="none" stroke-width="1" fill="none" fill-rule="evenodd">
        <g id="設定內容" transform="translate(-15.000000, -328.000000)">
            <g id="Cells" transform="translate(0.000000, 99.000000)">
                <g id="Glances-Copy-2" transform="translate(0.000000, 222.000000)">
                    <g id="Glances-Icon" transform="translate(15.000000, 7.000000)">
                        <g id="Group-2">
                            <g id="Group-3">
                                <path d="M14.5,29 C22.5081289,29 29,22.5081289 29,14.5 C29,6.49187113 22.5081289,0 14.5,0 C6.49187113,0 0,6.49187113 0,14.5 C0,22.5081289 6.49187113,29 14.5,29 Z" id="Oval-516" fill="#1E8CFF"></path>
                                <path d="M9.19570347,12 C8.50232343,12 7.99562263,12.2933531 7.66671158,12.8800593 L7.66671158,12.1244528 L7,12.1244528 L7,18.4804366 L7.71115902,18.4804366 L7.71115902,15.8847061 C8.06673853,16.5247493 8.57343933,16.8447708 9.23126142,16.8447708 C9.88908352,16.8447708 10.3957843,16.5958652 10.7691428,16.1158328 C11.1069433,15.6713584 11.2847331,15.1113207 11.2847331,14.4357196 C11.2847331,13.7423396 11.1069433,13.1823019 10.7602533,12.7378275 C10.3780053,12.2400162 9.85352557,12 9.19570347,12 L9.19570347,12 Z M9.1068086,12.5867062 C9.59573042,12.5867062 9.96908891,12.7644959 10.2268841,13.1378544 C10.4402318,13.457876 10.5557951,13.8934609 10.5557951,14.4357196 C10.5557951,14.9868679 10.4402318,15.4224528 10.2091051,15.7424743 C9.95130993,16.0802749 9.57795145,16.2580646 9.08014013,16.2580646 C8.65344472,16.2580646 8.32453367,16.0891644 8.07562802,15.7691428 C7.80894338,15.4402318 7.68449056,15.0135363 7.68449056,14.4801671 L7.68449056,14.3912722 C7.68449056,13.8756819 7.8000539,13.4489865 8.03118058,13.1289649 C8.28008624,12.7644959 8.64455523,12.5867062 9.1068086,12.5867062 L9.1068086,12.5867062 Z M14.1915956,12 C13.4982155,12 12.9915147,12.2933531 12.6626037,12.8800593 L12.6626037,12.1244528 L11.9958921,12.1244528 L11.9958921,18.4804366 L12.7070511,18.4804366 L12.7070511,15.8847061 C13.0626306,16.5247493 13.5693314,16.8447708 14.2271535,16.8447708 C14.8849756,16.8447708 15.3916764,16.5958652 15.7650349,16.1158328 C16.1028355,15.6713584 16.2806252,15.1113207 16.2806252,14.4357196 C16.2806252,13.7423396 16.1028355,13.1823019 15.7561454,12.7378275 C15.3738975,12.2400162 14.8494177,12 14.1915956,12 L14.1915956,12 Z M14.1027007,12.5867062 C14.5916225,12.5867062 14.964981,12.7644959 15.2227762,13.1378544 C15.4361239,13.457876 15.5516872,13.8934609 15.5516872,14.4357196 C15.5516872,14.9868679 15.4361239,15.4224528 15.2049972,15.7424743 C14.947202,16.0802749 14.5738436,16.2580646 14.0760322,16.2580646 C13.6493368,16.2580646 13.3204258,16.0891644 13.0715201,15.7691428 C12.8048355,15.4402318 12.6803827,15.0135363 12.6803827,14.4801671 L12.6803827,14.3912722 C12.6803827,13.8756819 12.795946,13.4489865 13.0270727,13.1289649 C13.2759783,12.7644959 13.6404473,12.5867062 14.1027007,12.5867062 L14.1027007,12.5867062 Z M19.0008085,12 C18.4852182,12 18.0496333,12.2400162 17.7029432,12.7378275 L17.7029432,12.1244528 L16.9917842,12.1244528 L16.9917842,16.720318 L17.7029432,16.720318 L17.7029432,13.9201294 C17.7029432,13.5556604 17.8096171,13.2445283 18.0229648,12.9956226 C18.2363125,12.728938 18.5029971,12.6044852 18.8319082,12.6044852 C19.5341777,12.6044852 19.8897572,13.0045121 19.8897572,13.822345 L19.8897572,16.720318 L20.6009163,16.720318 L20.6009163,13.840124 C20.6009163,13.4667655 20.6987006,13.1734124 20.9120483,12.9422857 C21.1076171,12.711159 21.3654122,12.6044852 21.6676548,12.6044852 C22.0587922,12.6044852 22.3432559,12.7022695 22.5210456,12.9156172 C22.6899459,13.111186 22.7788408,13.4134286 22.7788408,13.822345 L22.7788408,16.720318 L23.4899998,16.720318 L23.4899998,13.7067816 C23.4899998,13.1823019 23.3388785,12.7644959 23.0544149,12.4533639 C22.7521723,12.1511213 22.3699243,12 21.889892,12 C21.5698704,12 21.3031858,12.0711159 21.0809486,12.2133477 C20.8320429,12.34669 20.6186952,12.5689272 20.4409055,12.8711698 C20.1831103,12.2844636 19.703078,12 19.0008085,12 L19.0008085,12 Z" id="ppm" fill="#FFFFFF"></path>
                            </g>
                        </g>
                    </g>
                </g>
            </g>
        </g>
    </g>
</svg>