<?xml version="1.0" encoding="UTF-8" standalone="no"?>
<svg width="19px" height="20px" viewBox="0 0 19 20" version="1.1" xmlns="http://www.w3.org/2000/svg" xmlns:xlink="http://www.w3.org/1999/xlink">
    <!-- Generator: Sketch 39.1 (31720) - http://www.bohemiancoding.com/sketch -->
    <title>Group 9</title>
    <desc>Created with Sketch.</desc>
    <defs></defs>
    <g id="Page-1" stroke="none" stroke-width="1" fill="none" fill-rule="evenodd" stroke-linecap="round" stroke-linejoin="round">
        <g id="首頁" transform="translate(-278.000000, -196.000000)" stroke="#FFFFFF" stroke-width="2">
            <g id="Group-8" transform="translate(26.000000, 114.000000)">
                <g id="Group-3" transform="translate(253.000000, 77.000000)">
                    <g id="Group-9" transform="translate(0.000000, 6.000000)">
                        <path d="M3.5,17.1986206 C5.43299662,17.1986206 7,15.6223364 7,13.4781987 C7,11.334061 3.5000001,7 3.5000001,7 C3.5000001,7 0,11.334061 0,13.4781987 C0,15.6223364 1.56700338,17.1986206 3.5,17.1986206 Z" id="Oval-4"></path>
                        <path d="M13.5,10.1986206 C15.4329966,10.1986206 17,8.62233644 17,6.47819872 C17,4.33406101 13.5000001,0 13.5000001,0 C13.5000001,0 10,4.33406101 10,6.47819872 C10,8.62233644 11.5670034,10.1986206 13.5,10.1986206 Z" id="Oval-4-Copy"></path>
                    </g>
                </g>
            </g>
        </g>
    </g>
</svg>