<?xml version="1.0" encoding="UTF-8" standalone="no"?>
<svg width="25px" height="15px" viewBox="0 0 25 15" version="1.1" xmlns="http://www.w3.org/2000/svg" xmlns:xlink="http://www.w3.org/1999/xlink">
    <!-- Generator: Sketch 39.1 (31720) - http://www.bohemiancoding.com/sketch -->
    <title>Combined Shape</title>
    <desc>Created with Sketch.</desc>
    <defs></defs>
    <g id="Page-1" stroke="none" stroke-width="1" fill="none" fill-rule="evenodd" stroke-linecap="round" stroke-linejoin="round">
        <g id="首頁" transform="translate(-193.000000, -200.000000)" stroke="#FFFFFF" stroke-width="2">
            <g id="Group-8" transform="translate(26.000000, 114.000000)">
                <g id="Group-2" transform="translate(168.000000, 77.000000)">
                    <path d="M22.0830391,12.2191137 C21.9429625,18.1970507 17.0531355,23 11.0415195,23 C5.02990359,23 0.140076559,18.1970507 0,12.2191137 C0.204272721,12.2532101 0.414081018,12.2709539 0.628033609,12.2709539 C2.18041353,12.2709539 3.51461517,11.3368216 4.09919558,10 C4.683776,11.3368216 6.01797764,12.2709539 7.57035756,12.2709539 C9.12273748,12.2709539 10.4569391,11.3368216 11.0415195,10 C11.6261,11.3368216 12.9603016,12.2709539 14.5126815,12.2709539 C16.0650614,12.2709539 17.3992631,11.3368216 17.9838435,10 C18.5684239,11.3368216 19.9026255,12.2709539 21.4550055,12.2709539 C21.6689581,12.2709539 21.8787664,12.2532101 22.0830391,12.2191137 L22.0830391,12.2191137 Z" id="Combined-Shape"></path>
                </g>
            </g>
        </g>
    </g>
</svg>