<?xml version="1.0" encoding="UTF-8" standalone="no"?>
<svg width="51px" height="47px" viewBox="0 0 51 47" version="1.1" xmlns="http://www.w3.org/2000/svg" xmlns:xlink="http://www.w3.org/1999/xlink">
    <!-- Generator: Sketch 39.1 (31720) - http://www.bohemiancoding.com/sketch -->
    <title>Group 6</title>
    <desc>Created with Sketch.</desc>
    <defs></defs>
    <g id="Page-1" stroke="none" stroke-width="1" fill="none" fill-rule="evenodd">
        <g id="首頁" transform="translate(-195.000000, -124.000000)" fill="#FFFFFF">
            <g id="Group-8" transform="translate(26.000000, 114.000000)">
                <g id="Group-7" transform="translate(169.000000, 9.000000)">
                    <g id="Group-6" transform="translate(0.000000, 1.000000)">
                        <path d="M19.3302391,10.76412 C17.9211056,11.8375557 16.072922,12.3742654 13.7856329,12.3742654 L8.16954922,12.3742654 L8.16954922,21.7965976 L3.95238095,21.7965976 L3.95238095,0 L13.7856329,0 C16.1137664,0 17.972161,0.50689255 19.3608723,1.52069286 C20.8312724,2.61400692 21.5664615,4.16450178 21.5664615,6.17222395 C21.5664615,8.12031082 20.8210615,9.65092754 19.3302391,10.76412 Z M17.9987428,6.11384124 C17.9987428,4.10528419 16.6456468,3.10102073 13.9394141,3.10102073 L8.09398088,3.10102073 L8.09398088,9.12666176 L13.9394141,9.12666176 C16.6456468,9.12666176 17.9987428,8.12239829 17.9987428,6.11384124 L17.9987428,6.11384124 Z M46.8518009,21.7965976 L43.196052,21.7965976 L43.196052,5.66532633 L37.2135599,12.4935354 L34.6534844,12.4935354 L28.6709923,5.66532633 L28.6709923,21.7965976 L25.0152433,21.7965976 L25.0152433,0 L29.4255408,0 L35.9469962,8.4979895 L42.4415034,0 L46.8518009,0 L46.8518009,21.7965976 Z" id="PM"></path>
                        <path d="M0.238095238,28.0711054 C0.238095238,22.5514709 4.72060796,18.0769231 10.236715,18.0769231 L41.0013802,18.0769231 C46.5234654,18.0769231 51,22.5485834 51,28.0711054 L51,37.0058176 C51,42.5254521 46.5174873,47 41.0013802,47 L10.236715,47 C4.71462981,47 0.238095238,42.5283397 0.238095238,37.0058176 L0.238095238,28.0711054 Z M20.3752662,41.1530185 L8.50678138,41.1530185 C8.96478242,39.6462467 9.69125593,38.2943969 10.6862237,37.0974286 C11.5232601,36.0976081 12.7235207,35.0133119 14.2870415,33.8445076 C15.5662857,32.886933 16.4427918,32.091313 16.916586,31.457624 C17.4061733,30.8239349 17.6509633,30.1620918 17.6509633,29.4720748 C17.6509633,28.2187786 16.5217708,27.5921399 14.2633519,27.5921399 C12.1154849,27.5921399 10.9468101,28.7045996 10.7572925,30.9295524 L8.48309179,30.2536207 C8.6884026,28.7750129 9.28853289,27.6062261 10.2835007,26.7472253 C11.2942616,25.9023065 12.6208654,25.4798535 14.2633519,25.4798535 C16.0479766,25.4798535 17.4851307,25.8318977 18.5748573,26.5359967 C19.6487908,27.2400957 20.1857495,28.2187786 20.1857495,29.4720748 C20.1857495,30.5563872 19.775134,31.5773154 18.9538908,32.53489 C18.4327172,33.1544971 17.4456608,34.0064441 15.992692,35.0907565 C14.745034,36.0483312 13.9395959,36.6820107 13.5763537,36.9918143 C12.7709036,37.7099953 12.1707733,38.4211246 11.7759449,39.1252235 L20.3752662,39.1252235 L20.3752662,41.1530185 Z M27.659224,42.0935697 L24.3653119,42.0935697 L24.3653119,38.8761939 L27.659224,38.8761939 L27.659224,42.0935697 Z M42.3553116,35.7414344 C42.3553116,37.5191574 41.7227492,38.9300275 40.4576054,39.9740871 C39.3031617,40.9193842 37.8561751,41.3920257 36.1166024,41.3920257 C34.5826155,41.3920257 33.3412117,41.0886886 32.3923539,40.4820054 C31.5225675,39.9317578 30.8267488,39.0781814 30.304877,37.9212505 L32.6058458,37.07472 C33.0012033,37.9071459 33.4123688,38.4714939 33.8393549,38.7677811 C34.3295981,39.1205039 35.088673,39.2968626 36.1166024,39.2968626 C37.1761603,39.2968626 38.0380266,39.0358517 38.7022271,38.5138219 C39.492942,37.8930298 39.8882935,36.9689098 39.8882935,35.7414344 C39.8882935,33.5263352 38.7971233,32.4188021 36.6147503,32.4188021 C34.9700633,32.4188021 33.9105212,32.9760958 33.4360923,34.0906999 L31.0165169,34.0906999 L31.0165169,25.731211 L41.2404092,25.731211 L41.2404092,27.7628842 L33.3886497,27.7628842 L33.3886497,31.3183124 C34.2268074,30.6551935 35.3021635,30.3236391 36.6147503,30.3236391 C38.3385087,30.3236391 39.722239,30.8103893 40.7659827,31.7839042 C41.8255406,32.7574192 42.3553116,34.0765827 42.3553116,35.7414344 Z" id="Combined-Shape"></path>
                    </g>
                </g>
            </g>
        </g>
    </g>
</svg>