<?xml version="1.0" encoding="UTF-8" standalone="no"?>
<svg width="31px" height="32px" viewBox="0 0 31 32" version="1.1" xmlns="http://www.w3.org/2000/svg" xmlns:xlink="http://www.w3.org/1999/xlink">
    <!-- Generator: Sketch 39.1 (31720) - http://www.bohemiancoding.com/sketch -->
    <title>Icon</title>
    <desc>Created with Sketch.</desc>
    <defs>
        <path d="M25,15.5 C25,19.6425 21.6425,23 17.5,23 C13.3575,23 10,19.6425 10,15.5 C10,11.3575 13.3575,8 17.5,8 C21.6425,8 25,11.3575 25,15.5 L25,15.5 Z" id="path-1"></path>
        <mask id="mask-2" maskContentUnits="userSpaceOnUse" maskUnits="objectBoundingBox" x="0" y="0" width="15" height="15" fill="white">
            <use xlink:href="#path-1"></use>
        </mask>
        <path d="M29.6977524,19.4474667 C30.1152762,18.1750857 30.349181,16.8196571 30.349181,15.4078476 C30.349181,13.9922286 30.1137524,12.6337524 29.6939429,11.3583238 L32.045181,9.68365714 C32.3880381,9.43984762 32.4680381,8.96365714 32.2234667,8.6208 L28.6874667,3.65622857 C28.4428952,3.31413333 27.9674667,3.23413333 27.6246095,3.47794286 L25.2009905,5.1480381 C23.9918476,4.21699048 22.5716571,3.48632381 21.0478476,3.02689524 L21.0478476,0.761752381 C21.0478476,-0.000152380953 20.8649905,-0.000152380953 20.444419,-0.000152380953 L14.349181,-0.000152380953 L13.4288,0.761752381 L13.4288,3.02689524 C11.9049905,3.5015619 10.5472762,4.26422857 9.30841905,5.24099048 L6.7720381,3.43984762 C6.42765714,3.19832381 5.9720381,3.28213333 5.73127619,3.62727619 L2.24708571,8.6215619 C2.00632381,8.96670476 2.09546667,9.44137143 2.43984762,9.68289524 L5.0440381,11.5023238 C4.65394286,12.7350857 4.44289524,14.0463238 4.44289524,15.4078476 C4.44289524,16.8432762 4.68670476,18.2200381 5.11794286,19.5107048 L2.74765714,21.1990857 C2.4048,21.4436571 2.3248,21.9190857 2.56937143,22.2619429 L6.10613333,27.2265143 C6.34994286,27.5686095 6.82537143,27.6486095 7.16822857,27.4048 L9.47908571,25.7019429 C10.6775619,26.6162286 11.9049905,27.3354667 13.4288,27.7888 L13.4288,30.7129905 C13.4288,31.1335619 13.9278476,31.9998476 14.349181,31.9998476 L20.444419,31.9998476 C20.8649905,31.9998476 21.0478476,31.1335619 21.0478476,30.7129905 L21.0478476,27.7888 C22.5716571,27.3286095 23.9979429,26.5956571 25.2101333,25.6615619 L27.4333714,27.189181 C27.7785143,27.4307048 28.2729905,27.3468952 28.5145143,27.0017524 L32.0177524,22.0067048 C32.2592762,21.6623238 32.1800381,21.1868952 31.8348952,20.9461333 L29.6977524,19.4474667 L29.6977524,19.4474667 Z" id="path-3"></path>
        <mask id="mask-4" maskContentUnits="userSpaceOnUse" maskUnits="objectBoundingBox" x="0" y="0" width="30.2537426" height="32" fill="white">
            <use xlink:href="#path-3"></use>
        </mask>
    </defs>
    <g id="Page-1" stroke="none" stroke-width="1" fill="none" fill-rule="evenodd">
        <g id="首頁" transform="translate(-20.000000, -18.000000)">
            <g id="Icon" transform="translate(18.000000, 18.000000)">
                <rect id="Rectangle-11" x="0" y="0" width="32" height="32"></rect>
                <use id="Stroke-146" stroke="#FFFFFF" mask="url(#mask-2)" stroke-width="2" xlink:href="#path-1"></use>
                <use id="Stroke-148" stroke="#FFFFFF" mask="url(#mask-4)" stroke-width="2" stroke-linejoin="round" xlink:href="#path-3"></use>
            </g>
        </g>
    </g>
</svg>