<?xml version="1.0" encoding="UTF-8" standalone="no"?>
<svg width="52px" height="54px" viewBox="0 0 52 54" version="1.1" xmlns="http://www.w3.org/2000/svg" xmlns:xlink="http://www.w3.org/1999/xlink">
    <!-- Generator: Sketch 39.1 (31720) - http://www.bohemiancoding.com/sketch -->
    <title>04</title>
    <desc>Created with Sketch.</desc>
    <defs>
        <path d="M27.009942,25.0764488 C27.6784203,24.0719151 28.08,22.8792471 28.08,21.6 C28.08,18.0211948 24.9370389,15.12 21.6,15.12 C17.1829611,15.12 14.04,18.0211948 14.04,21.6 C14.04,24.5514526 16.1776397,27.0420383 19.4046437,27.824526 C21.6377699,26.4447736 24.2113547,25.4926614 27.009942,25.0764488 Z" id="path-1"></path>
        <mask id="mask-2" maskContentUnits="userSpaceOnUse" maskUnits="objectBoundingBox" x="-4" y="-4" width="22.04" height="20.96">
            <rect x="10.04" y="11.12" width="22.04" height="20.96" fill="white"></rect>
            <use xlink:href="#path-1" fill="black"></use>
        </mask>
        <path d="M14.04,54 C9.86472729,54 6.48,50.6152727 6.48,46.44 C6.48,42.2647273 9.86472729,38.88 14.04,38.88 C14.0515945,38.88 14.063183,38.8800261 14.0747653,38.8800782 C14.5964494,30.8266412 20.9314762,24.84 29.16,24.84 C35.007804,24.84 40.2589733,28.7954676 42.2988936,34.601215 C42.5956035,34.5739399 42.8961738,34.56 43.2,34.56 C48.5682078,34.56 52.92,38.9117922 52.92,44.28 C52.92,49.2831579 49.1399465,53.4034371 44.28,53.9406769 L44.28,54 L14.040009,54 Z" id="path-3"></path>
        <mask id="mask-4" maskContentUnits="userSpaceOnUse" maskUnits="objectBoundingBox" x="0" y="0" width="46.44" height="29.16" fill="white">
            <use xlink:href="#path-3"></use>
        </mask>
    </defs>
    <g id="Page-1" stroke="none" stroke-width="1" fill="none" fill-rule="evenodd">
        <g id="首頁" transform="translate(-27.000000, -118.000000)">
            <g id="Group-8" transform="translate(26.000000, 114.000000)">
                <g id="Group">
                    <g id="04" transform="translate(0.000000, 4.000000)">
                        <rect id="Rectangle" x="0" y="0" width="54" height="54"></rect>
                        <g id="sun" transform="translate(1.080000, 0.000000)">
                            <use id="O" stroke="#FFFFFF" mask="url(#mask-2)" stroke-width="8" xlink:href="#path-1"></use>
                            <path d="M18.3856886,2.29581303 C18.3856886,1.0278705 19.4057836,0 20.6838997,0 C21.9531666,0 22.9821107,1.03219626 22.9821107,2.29581303 L22.9821107,4.59882019 C22.9821107,5.86676271 21.9620157,6.89463322 20.6838997,6.89463322 C19.4146327,6.89463322 18.3856886,5.86243696 18.3856886,4.59882019 L18.3856886,2.29581303 Z M32.0611598,6.05647827 C32.9577305,5.15990752 34.4058609,5.15440944 35.3096254,6.05817395 C36.2071326,6.9556812 36.204833,8.41312755 35.311321,9.30663954 L33.6828491,10.9351115 C32.7862783,11.8316823 31.338148,11.8371804 30.4343835,10.9334158 C29.5368762,10.0359086 29.5391758,8.57846224 30.4326878,7.68495025 L32.0611598,6.05647827 Z M39.0719863,18.3856886 C40.3399288,18.3856886 41.3677993,19.4057836 41.3677993,20.6838997 C41.3677993,21.9531666 40.335603,22.9821107 39.0719863,22.9821107 L36.7689791,22.9821107 C35.5010366,22.9821107 34.4731661,21.9620157 34.4731661,20.6838997 C34.4731661,19.4146327 35.5053623,18.3856886 36.7689791,18.3856886 L39.0719863,18.3856886 Z M9.30663954,35.311321 C8.41006878,36.2078918 6.96193845,36.2133899 6.05817395,35.3096254 C5.1606667,34.4121181 5.16296628,32.9546718 6.05647827,32.0611598 L7.68495025,30.4326878 C8.58152101,29.536117 10.0296513,29.5306189 10.9334158,30.4343835 C11.8309231,31.3318907 11.8286235,32.7893371 10.9351115,33.6828491 L9.30663954,35.311321 Z M2.29581303,22.9821107 C1.0278705,22.9821107 3.80941447e-15,21.9620157 3.57462836e-15,20.6838997 C3.34146781e-15,19.4146327 1.03219626,18.3856886 2.29581303,18.3856886 L4.59882019,18.3856886 C5.86676271,18.3856886 6.89463322,19.4057836 6.89463322,20.6838997 C6.89463322,21.9531666 5.86243696,22.9821107 4.59882019,22.9821107 L2.29581303,22.9821107 Z M6.05647827,9.30663954 C5.15990752,8.41006878 5.15440944,6.96193845 6.05817395,6.05817395 C6.9556812,5.1606667 8.41312755,5.16296628 9.30663954,6.05647827 L10.9351115,7.68495025 C11.8316823,8.58152101 11.8371804,10.0296513 10.9334158,10.9334158 C10.0359086,11.8309231 8.57846224,11.8286235 7.68495025,10.9351115 L6.05647827,9.30663954 Z" id="light" fill="#FFFFFF"></path>
                        </g>
                        <use id="cloud" stroke="#FFFFFF" mask="url(#mask-4)" stroke-width="8" stroke-linecap="round" stroke-linejoin="round" xlink:href="#path-3"></use>
                    </g>
                </g>
            </g>
        </g>
    </g>
</svg>